<svg xmlns="http://www.w3.org/2000/svg" width="62.777" height="40.066" viewBox="0 0 62.777 40.066"><defs><style>.a{fill:#fff;}</style></defs><g transform="translate(0 -92.615)"><g transform="translate(0 92.615)"><g transform="translate(0 0)"><path class="a" d="M61.389,116.034l-5.511-3.149-4.645-7.462a4.348,4.348,0,0,0-.322-.451,4.26,4.26,0,0,0-3.32-1.572h-8.8V96.1a3.494,3.494,0,0,0-3.49-3.49H3.49A3.493,3.493,0,0,0,0,96.1v28.9a3.124,3.124,0,0,0,3.12,3.12h.534a5.779,5.779,0,0,0,10.2,2.329,5.783,5.783,0,1,0,0-7.121,5.779,5.779,0,0,0-10.2,2.329H3.12a.659.659,0,0,1-.658-.658v-5.458H26.878a1.231,1.231,0,1,0,0-2.462H2.462V103.569H23.031l-1.676,1.676a1.231,1.231,0,0,0,1.741,1.741l3.777-3.777a1.244,1.244,0,0,0,0-1.741l-3.559-3.559a1.231,1.231,0,1,0-1.741,1.741l1.458,1.458H2.462v-5a1.029,1.029,0,0,1,1.028-1.028H35.305A1.029,1.029,0,0,1,36.333,96.1v29.562H27.972a1.231,1.231,0,1,0,0,2.462H39.626a1.231,1.231,0,1,0,0-2.462h-.831V105.861h1.717v6.068a3.1,3.1,0,0,0,3.1,3.1H54.67l5.5,3.142a.294.294,0,0,1,.148.255v6.582a.659.659,0,0,1-.658.658h-.645a5.783,5.783,0,1,0,0,2.462h.645a3.124,3.124,0,0,0,3.12-3.12v-6.582A2.76,2.76,0,0,0,61.389,116.034Zm-42.98,7.542a3.321,3.321,0,1,1-3.321,3.321A3.325,3.325,0,0,1,18.409,123.576Zm-9.1,0A3.321,3.321,0,1,1,5.983,126.9,3.325,3.325,0,0,1,9.3,123.576Zm34.308-11.008a.64.64,0,0,1-.639-.639v-6.068h4.617a1.817,1.817,0,0,1,1.552.862l3.638,5.845Zm9.749,17.651a3.321,3.321,0,1,1,3.321-3.321A3.325,3.325,0,0,1,53.362,130.219Z" transform="translate(0 -92.615)"/></g></g><g transform="translate(40.941 117.088)"><g transform="translate(0 0)"><path class="a" d="M337.473,292.212h-2.335a1.231,1.231,0,0,0,0,2.462h2.335a1.231,1.231,0,0,0,0-2.462Z" transform="translate(-333.907 -292.212)"/></g></g><g transform="translate(4.563 112.42)"><circle class="a" cx="1.262" cy="1.262" r="1.262"/></g><g transform="translate(30.118 117.056)"><circle class="a" cx="1.262" cy="1.262" r="1.262"/></g><g transform="translate(43.339 125.636)"><g transform="translate(0 0)"><circle class="a" cx="1.262" cy="1.262" r="1.262"/></g></g><g transform="translate(4.563 108.188)"><g transform="translate(0 0)"><circle class="a" cx="1.262" cy="1.262" r="1.262"/></g></g><g transform="translate(16.476 112.123)"><g transform="translate(0 0)"><path class="a" d="M144.776,251.721H135.6a1.231,1.231,0,0,0,0,2.462h9.172a1.231,1.231,0,0,0,0-2.462Z" transform="translate(-134.373 -251.721)"/></g></g></g></svg>