<svg xmlns="http://www.w3.org/2000/svg" width="40.588" height="36.587" viewBox="0 0 40.588 36.587"><defs><style>.a{fill:#ecbe44;}</style></defs><g transform="translate(-2.862 -5.449)"><path class="a" d="M9.57,54.354a.7.7,0,0,0,.7-.7V46.7a.7.7,0,0,0-.7-.7H4.7a.7.7,0,0,0-.7.7v6.962a.7.7,0,0,0,.7.7ZM5.392,47.392H8.873v5.57H5.392Z" transform="translate(-0.346 -12.319)"/><path class="a" d="M25.57,52.836a.7.7,0,0,0,.7-.7V41.7a.7.7,0,0,0-.7-.7H20.7a.7.7,0,0,0-.7.7V52.139a.7.7,0,0,0,.7.7ZM21.392,42.392h3.481v9.051H21.392Z" transform="translate(-5.206 -10.8)"/><path class="a" d="M41.57,51.013a.7.7,0,0,0,.7-.7V35.7a.7.7,0,0,0-.7-.7H36.7a.7.7,0,0,0-.7.7v14.62a.7.7,0,0,0,.7.7Zm-4.177-14.62h3.481V49.62H37.392Z" transform="translate(-10.067 -8.977)"/><path class="a" d="M56.57,47.975a.7.7,0,0,0,.7-.7V25.7a.7.7,0,0,0-.7-.7H51.7a.7.7,0,0,0-.7.7V47.279a.7.7,0,0,0,.7.7ZM52.392,26.392h3.481v20.19H52.392Z" transform="translate(-14.624 -5.94)"/><path class="a" d="M42.719,5.45l-8.431.383a.7.7,0,0,0-.459,1.184L35.61,8.8a94.97,94.97,0,0,1-11.48,9.7c-7.442,5.437-20.475,8.222-20.622,8.222a.7.7,0,1,0,.1,1.392c.1,0,.731.042,1.747.042,3.683,0,12.532-.453,20.19-4.3a44.056,44.056,0,0,0,14.161-10.91L41.862,15.1a.7.7,0,0,0,1.191-.459l.4-8.466a.7.7,0,0,0-.731-.724ZM41.737,13l-1.6-1.6a.7.7,0,0,0-1.058.091A41.575,41.575,0,0,1,24.923,22.632,43.258,43.258,0,0,1,9.677,26.566c4.546-1.392,10.8-3.669,15.275-6.927A92.5,92.5,0,0,0,37.072,9.314a.7.7,0,0,0,0-.968L35.9,7.162l6.127-.285Z" transform="translate(0 0)"/></g></svg>