<svg xmlns="http://www.w3.org/2000/svg" width="14.534" height="14.534" viewBox="0 0 14.534 14.534"><defs><style>.a{fill:#f0f0f7;}</style></defs><path class="a" d="M3.832,362H.426a.426.426,0,0,0-.426.426v3.406a.426.426,0,0,0,.426.426H3.832a.426.426,0,0,0,.426-.426v-3.406A.426.426,0,0,0,3.832,362Z" transform="translate(0 -351.724)"/><path class="a" d="M60.852,223.179v-1.164h4.286v1.164h.852v-1.164h4.286v1.164h.852v-1.59a.426.426,0,0,0-.426-.426H65.99V220h-.852v1.164H60.426a.426.426,0,0,0-.426.426v1.59Z" transform="translate(-58.297 -213.755)"/><path class="a" d="M161.426,5.393h4.542a.426.426,0,0,0,.426-.426V.426A.426.426,0,0,0,165.968,0h-4.542A.426.426,0,0,0,161,.426V4.968A.426.426,0,0,0,161.426,5.393Z" transform="translate(-156.43)"/><path class="a" d="M184.832,362h-3.406a.426.426,0,0,0-.426.426v3.406a.426.426,0,0,0,.426.426h3.406a.426.426,0,0,0,.426-.426v-3.406A.426.426,0,0,0,184.832,362Z" transform="translate(-175.862 -351.724)"/><path class="a" d="M365.832,362h-3.406a.426.426,0,0,0-.426.426v3.406a.426.426,0,0,0,.426.426h3.406a.426.426,0,0,0,.426-.426v-3.406A.426.426,0,0,0,365.832,362Z" transform="translate(-351.724 -351.724)"/></svg>