<svg xmlns="http://www.w3.org/2000/svg" width="17.667" height="17.633" viewBox="0 0 17.667 17.633"><defs><style>.a{fill:#f0f0f7;}</style></defs><g transform="translate(-2.975 -3.095)"><path class="a" d="M5.8,14.515a.549.549,0,0,0,.466-.258L7.63,12.078H6.716V5.986H4.889v6.092H3.975l1.362,2.178A.549.549,0,0,0,5.8,14.515Z" transform="translate(-0.695 -2.01)"/><path class="a" d="M28.021,26.2H26.193V24.986H24.975v3.046h4.264V24.986H28.021Z" transform="translate(-15.299 -15.223)"/><path class="a" d="M30.975,36.985h.609v.609h-.609Z" transform="translate(-19.471 -23.567)"/><path class="a" d="M28.021,38.2H26.193V36.985H24.975v3.046h3.046V44.3h1.218v-7.31H28.021Z" transform="translate(-15.299 -23.567)"/><path class="a" d="M22.021,50.2H20.193V48.985H18.975V52.64h4.264V48.985H22.021Z" transform="translate(-11.126 -31.912)"/><path class="a" d="M24.975,48.985h.609v.609h-.609Z" transform="translate(-15.299 -31.912)"/><path class="a" d="M6.021,50.2H4.193V48.985H2.975V52.64H7.239V48.985H6.021Z" transform="translate(0 -31.912)"/><path class="a" d="M8.975,35.851V36.2h.609v-.345a1.157,1.157,0,0,1-.609,0Z" transform="translate(-4.172 -22.779)"/><path class="a" d="M8.975,48.985h.609v.609H8.975Z" transform="translate(-4.172 -31.912)"/><path class="a" d="M6.021,36.2H4.193V34.985H2.975V38.64H7.239V34.985H6.021Z" transform="translate(0 -22.176)"/><path class="a" d="M44.021,28.2H42.193V26.986H40.975v3.046h4.264V26.986H44.021Z" transform="translate(-26.425 -16.614)"/><path class="a" d="M46.975,26.986h.609V27.6h-.609Z" transform="translate(-30.598 -16.614)"/><path class="a" d="M14.28,20.509h1.4l-1.708,2.733v.008H15.5v4.264h1.218V20.2H22.2v.609h4.874V31.779h.609V18.986H14.28Z" transform="translate(-7.649 -11.051)"/><path class="a" d="M30.975,24.986h.609V25.6h-.609Z" transform="translate(-19.471 -15.223)"/><path class="a" d="M21.676,3.095l-6.7,3.217V7.326H28.987V6.6Z" transform="translate(-8.345 0)"/><path class="a" d="M46.975,38.985h.609v.609h-.609Z" transform="translate(-30.598 -24.958)"/><path class="a" d="M44.021,52.2H42.193V50.985H40.975v3.046h4.264V50.985H44.021Z" transform="translate(-26.425 -33.303)"/><path class="a" d="M44.021,40.2H42.193V38.985H40.975v3.046h4.264V38.985H44.021Z" transform="translate(-26.425 -24.958)"/><path class="a" d="M46.975,50.985h.609v.609h-.609Z" transform="translate(-30.598 -33.303)"/></g></svg>