<svg xmlns="http://www.w3.org/2000/svg" width="29.229" height="29.229" viewBox="0 0 29.229 29.229"><defs><style>.a{fill:#fff;}</style></defs><path class="a" d="M26.921,0H2.308A2.308,2.308,0,0,0,0,2.308V26.921a2.308,2.308,0,0,0,2.308,2.308H26.921a2.308,2.308,0,0,0,2.308-2.308V2.308A2.308,2.308,0,0,0,26.921,0ZM22.306,18.941a1.442,1.442,0,0,1-1.442,1.442h-.481v-9l-5.769,4.44L8.846,11.39v8.994H8.365a1.442,1.442,0,0,1-1.442-1.442V10.288A1.442,1.442,0,0,1,8.365,8.846h.481L14.615,13.4l5.769-4.555h.481a1.442,1.442,0,0,1,1.442,1.442Z"/></svg>