<svg xmlns="http://www.w3.org/2000/svg" width="34.922" height="10.606" viewBox="0 0 34.922 10.606"><defs><style>.a{fill:#000075;}.a,.b{fill-rule:evenodd;}.b{fill:#faa831;}</style></defs><g transform="translate(0 0)"><path class="a" d="M2331.78,110.228l1.7-9.948h2.717l-1.7,9.948Z" transform="translate(-2319.993 -99.773)"/><path class="a" d="M3214,68.122a7.283,7.283,0,0,0-2.429-.412c-2.689,0-4.569,1.345-4.583,3.28-.014,1.427,1.345,2.223,2.374,2.7,1.057.494,1.413.8,1.4,1.235,0,.672-.837.974-1.619.974a5.7,5.7,0,0,1-2.552-.521l-.356-.165-.371,2.223a8.327,8.327,0,0,0,3.019.535c2.854,0,4.693-1.331,4.721-3.4.013-1.125-.714-1.99-2.278-2.7-.947-.453-1.523-.755-1.523-1.221,0-.425.494-.864,1.55-.864a4.9,4.9,0,0,1,2.031.384l.247.11.371-2.154Z" transform="translate(-3189.654 -67.368)"/><path class="a" d="M4706.407,102.99h-2.1a1.366,1.366,0,0,0-1.427.823l-4.021,9.125h2.84s.467-1.235.577-1.5h3.471c.083.343.33,1.5.33,1.5h2.511l-2.182-9.948Zm-3.348,6.408c.219-.563,1.083-2.772,1.083-2.772-.027.027.219-.576.357-.947l.178.851s.521,2.374.631,2.868Z" transform="translate(-4675.108 -102.469)"/><path class="a" d="M565.9,103l-2.662,6.778-.274-1.372a7.793,7.793,0,0,0-3.76-4.171l2.429,8.7H564.5L568.764,103H565.9Z" transform="translate(-556.373 -102.479)"/><path class="b" d="M4.415,100.28H.037l-.027.22c3.389.823,5.653,2.813,6.586,5.2l-.961-4.569a1.138,1.138,0,0,0-1.221-.851Z" transform="translate(-0.01 -99.773)"/><path class="a" d="M6411.109,0a1.238,1.238,0,0,0-1.259,1.263,1.261,1.261,0,1,0,2.521,0A1.241,1.241,0,0,0,6411.109,0Zm0,2.251a.942.942,0,0,1-.968-.989.97.97,0,1,1,1.939,0A.947.947,0,0,1,6411.109,2.251Zm-.4-1.6V1.866h.225V1.426h.2l.26.441h.239l-.288-.479a.343.343,0,0,0,.232-.343c0-.239-.177-.388-.464-.388h-.406Zm.225.583V.86h.2c.142,0,.219.076.219.191s-.073.187-.219.187Z" transform="translate(-6377.45 0)"/></g></svg>