<svg xmlns="http://www.w3.org/2000/svg" width="16.622" height="16.622" viewBox="0 0 16.622 16.622"><defs><style>.a{fill:#fff;}</style></defs><g transform="translate(-2 -2)"><path class="a" d="M16.841,18.622H2.594A.594.594,0,0,1,2,18.029V3.781a.594.594,0,0,1,.594-.594h9.5a.594.594,0,1,1,0,1.187h-8.9v13.06h13.06V8.53a.594.594,0,1,1,1.187,0v9.5A.594.594,0,0,1,16.841,18.622ZM18.029,2H14.467a.594.594,0,1,0,0,1.187h2.125l-6.7,6.7a.6.6,0,1,0,.843.843l6.7-6.708V6.185a.594.594,0,1,0,1.187,0V2.594A.594.594,0,0,0,18.029,2Z"/></g></svg>