<svg xmlns="http://www.w3.org/2000/svg" width="14.374" height="14.344" viewBox="0 0 14.374 14.344"><defs><style>.a{fill:#f0f0f7;}</style></defs><g transform="translate(-0.4 -0.5)"><g transform="translate(1.04 3.637)"><path class="a" d="M14.986,22.007H3.109A.611.611,0,0,1,2.5,21.4V11.409a.611.611,0,0,1,.609-.609H14.956a.611.611,0,0,1,.609.609V21.4A.605.605,0,0,1,14.986,22.007ZM3.718,20.789H14.377v-8.8H3.718Z" transform="translate(-2.5 -10.8)"/></g><g transform="translate(0.4 3.606)"><path class="a" d="M14.165,11.918H1.009a.609.609,0,1,1,0-1.218H14.165a.611.611,0,0,1,.609.609A.592.592,0,0,1,14.165,11.918Z" transform="translate(-0.4 -10.7)"/></g><g transform="translate(0.4 13.626)"><path class="a" d="M14.165,44.818H1.009a.609.609,0,0,1,0-1.218H14.165a.609.609,0,0,1,0,1.218Z" transform="translate(-0.4 -43.6)"/></g><g transform="translate(1.009 0.5)"><path class="a" d="M14.917,4.824H3.009A.611.611,0,0,1,2.4,4.215V2.023A1.527,1.527,0,0,1,3.923.5H13.942a1.527,1.527,0,0,1,1.523,1.523V4.246a.536.536,0,0,1-.548.579ZM3.618,3.637H14.308V2.023a.338.338,0,0,0-.335-.335H3.953a.338.338,0,0,0-.335.335Z" transform="translate(-2.4 -0.5)"/></g><g transform="translate(4.999 8.053)"><path class="a" d="M20.068,32.091H16.109a.611.611,0,0,1-.609-.609V25.909a.611.611,0,0,1,.609-.609h3.959a.611.611,0,0,1,.609.609v5.573A.611.611,0,0,1,20.068,32.091Zm-3.38-1.218h2.771V26.518H16.688Z" transform="translate(-15.5 -25.3)"/></g></g></svg>