<svg xmlns="http://www.w3.org/2000/svg" width="30.151" height="41.949" viewBox="0 0 30.151 41.949"><defs><style>.a{fill:#ecbe44;}</style></defs><g transform="translate(-72)"><g transform="translate(72)"><g transform="translate(0)"><path class="a" d="M100.184,1.966H92.319V1.311A1.312,1.312,0,0,0,91.008,0H83.143a1.312,1.312,0,0,0-1.311,1.311v.655H73.966A1.969,1.969,0,0,0,72,3.933v36.05a1.969,1.969,0,0,0,1.966,1.966h26.218a1.969,1.969,0,0,0,1.966-1.966V3.933A1.969,1.969,0,0,0,100.184,1.966ZM83.143,1.311h7.865v1.3s0,0,0,.006,0,0,0,.007v1.3H83.143Zm17.7,38.672a.656.656,0,0,1-.655.655H73.966a.656.656,0,0,1-.655-.655V3.933a.656.656,0,0,1,.655-.655h7.865v.655a1.312,1.312,0,0,0,1.311,1.311h7.865a1.312,1.312,0,0,0,1.311-1.311V3.277h7.865a.656.656,0,0,1,.655.655Z" transform="translate(-72)"/><path class="a" d="M189.9,107.8a5.9,5.9,0,1,0-5.9-5.9A5.906,5.906,0,0,0,189.9,107.8Zm0-10.487a4.588,4.588,0,1,1-4.588,4.588A4.594,4.594,0,0,1,189.9,97.311Z" transform="translate(-174.824 -88.135)"/><path class="a" d="M216.655,131.933h1.966V133.9a.655.655,0,0,0,1.311,0v-1.966H221.9a.655.655,0,1,0,0-1.311h-1.966v-1.966a.655.655,0,0,0-1.311,0v1.966h-1.966a.655.655,0,0,0,0,1.311Z" transform="translate(-204.202 -117.513)"/><path class="a" d="M148.319,272H128.655a.655.655,0,1,0,0,1.311h19.664a.655.655,0,1,0,0-1.311Z" transform="translate(-123.412 -249.715)"/><path class="a" d="M148.319,320H128.655a.655.655,0,0,0,0,1.311h19.664a.655.655,0,0,0,0-1.311Z" transform="translate(-123.412 -293.782)"/><path class="a" d="M148.319,368H128.655a.655.655,0,0,0,0,1.311h19.664a.655.655,0,0,0,0-1.311Z" transform="translate(-123.412 -337.849)"/><path class="a" d="M140.454,432h-11.8a.655.655,0,0,0,0,1.311h11.8a.655.655,0,0,0,0-1.311Z" transform="translate(-123.412 -396.606)"/><path class="a" d="M368.19,432.309a.675.675,0,0,0-.19.465.66.66,0,0,0,.656.655.658.658,0,0,0,.465-1.121A.693.693,0,0,0,368.19,432.309Z" transform="translate(-343.748 -396.725)"/><path class="a" d="M336.19,432.282a.655.655,0,0,0,.465,1.121.677.677,0,0,0,.465-.19.658.658,0,0,0-.931-.931Z" transform="translate(-314.37 -396.697)"/><path class="a" d="M304.19,432.282a.665.665,0,0,0,0,.931.655.655,0,0,0,1.121-.465.675.675,0,0,0-.19-.465A.686.686,0,0,0,304.19,432.282Z" transform="translate(-284.992 -396.697)"/></g></g></g></svg>