<svg xmlns="http://www.w3.org/2000/svg" width="49.808" height="49.807" viewBox="0 0 49.808 49.807"><defs><style>.a{fill:#fff;}</style></defs><g transform="translate(0 -0.002)"><path class="a" d="M107.085,91.06a16.048,16.048,0,1,0,16.047,16.048A16.066,16.066,0,0,0,107.085,91.06Zm0,29.177a13.13,13.13,0,1,1,13.13-13.13A13.145,13.145,0,0,1,107.085,120.237Z" transform="translate(-82.184 -82.201)"/><path class="a" d="M181.054,196.487l-7.722,7.722-4.8-4.8a1.459,1.459,0,1,0-2.063,2.063L172.3,207.3a1.459,1.459,0,0,0,2.063,0l8.753-8.753a1.459,1.459,0,1,0-2.063-2.063Z" transform="translate(-149.889 -176.989)"/><path class="a" d="M47.719,14.677l-5.1-3.05L41.481,6.895a4.358,4.358,0,0,0-4.592-3.336l-5.8.449L27.74,1.053a4.359,4.359,0,0,0-5.676,0L18.716,4.008l-5.8-.449A4.357,4.357,0,0,0,8.336,6.843L6.745,11.911,2.089,14.677a4.358,4.358,0,0,0-1.754,5.4l1.985,4.81L.335,29.7a4.358,4.358,0,0,0,1.754,5.4l5.086,3.031,1.147,4.752a4.356,4.356,0,0,0,4.246,3.35c.308,0-.038.012,6.087-.458l3.408,2.991a4.359,4.359,0,0,0,5.676,0l3.408-2.991,5.74.444a4.359,4.359,0,0,0,4.592-3.336l1.143-4.732c6.229-3.729,4.908-2.935,5.1-3.05a4.359,4.359,0,0,0,1.754-5.4l-1.985-4.81,1.985-4.81a4.358,4.358,0,0,0-1.754-5.4ZM44.561,25.442l2.215,5.366a1.453,1.453,0,0,1-.579,1.8l-5.6,3.35a1.459,1.459,0,0,0-.669.909l-1.286,5.327A1.452,1.452,0,0,1,37.114,43.3l-6.353-.492a1.46,1.46,0,0,0-1.075.358l-3.845,3.374a1.453,1.453,0,0,1-1.878,0L20.118,43.17a1.459,1.459,0,0,0-1.075-.358L12.69,43.3a1.453,1.453,0,0,1-1.531-1.112L9.868,36.843a1.459,1.459,0,0,0-.671-.911L3.61,32.6a1.453,1.453,0,0,1-.578-1.8l2.215-5.366a1.458,1.458,0,0,0,0-1.113L3.032,18.963a1.453,1.453,0,0,1,.577-1.794l5.106-3.033a1.459,1.459,0,0,0,.647-.817c1.882-6,1.776-5.647,1.8-5.738A1.451,1.451,0,0,1,12.69,6.468l6.416.5A1.459,1.459,0,0,0,20.184,6.6l3.78-3.336a1.453,1.453,0,0,1,1.875,0L29.62,6.6a1.46,1.46,0,0,0,1.078.361l6.416-.5A1.453,1.453,0,0,1,38.644,7.58l1.286,5.327a1.459,1.459,0,0,0,.669.909l5.6,3.35a1.453,1.453,0,0,1,.579,1.8l-2.215,5.366A1.459,1.459,0,0,0,44.561,25.442Z"/></g></svg>