<svg xmlns="http://www.w3.org/2000/svg" width="24" height="24" viewBox="0 0 24 24"><defs><style>.a{fill:#fff;}</style></defs><g transform="translate(-3 -3)"><path class="a" d="M36.939,34.931l1.3,1.625-1.26,1.26L36.4,34.947c.106-.009.212-.016.32-.016Zm2.648,0-.794.993L38,34.931Zm1.06,0h.215c.108,0,.214.007.319.016l-.574,2.869-1.26-1.26Zm1.87-3.31h-.024a3.7,3.7,0,0,0,.024-.414V29.966a.828.828,0,0,1,0,1.655Zm-7.448-4.138A2.485,2.485,0,0,1,37.552,25h2.483a2.485,2.485,0,0,1,2.483,2.483v1.655H40.862a.828.828,0,0,1-.828-.828V26.655h-.828v.414a2.071,2.071,0,0,1-2.069,2.069H35.069Zm0,4.138a.828.828,0,0,1,0-1.655v1.241a3.7,3.7,0,0,0,.024.414Zm.828-.414V29.966h1.241a2.89,2.89,0,0,0,2.2-1.015,1.657,1.657,0,0,0,1.526,1.015h.828v1.241a2.9,2.9,0,1,1-5.793,0Zm8.69,8.69H33V38.655a3.73,3.73,0,0,1,2.593-3.547l.726,3.629a.414.414,0,0,0,.286.315.422.422,0,0,0,.12.017.414.414,0,0,0,.293-.121l1.776-1.776,1.776,1.776a.414.414,0,0,0,.7-.211l.726-3.629a3.731,3.731,0,0,1,2.592,3.547Z" transform="translate(-17.586 -12.897)"/><path class="a" d="M6.939,12.931l1.3,1.625-1.26,1.26L6.4,12.947c.106-.009.212-.016.32-.016Zm2.648,0-.794.993L8,12.931Zm1.06,0h.215c.108,0,.214.007.319.016l-.574,2.869-1.26-1.26Zm1.87-3.31h-.024a3.7,3.7,0,0,0,.024-.414V7.966a.828.828,0,1,1,0,1.655ZM5.069,5.483A2.485,2.485,0,0,1,7.552,3h2.483a2.485,2.485,0,0,1,2.483,2.483V7.138H10.862a.828.828,0,0,1-.828-.828V4.655H9.207v.414A2.071,2.071,0,0,1,7.138,7.138H5.069Zm0,4.138a.828.828,0,1,1,0-1.655V9.207a3.7,3.7,0,0,0,.024.414ZM5.9,9.207V7.966H7.138a2.89,2.89,0,0,0,2.2-1.015,1.657,1.657,0,0,0,1.526,1.015h.828V9.207a2.9,2.9,0,1,1-5.793,0Zm8.69,8.69H3V16.655a3.73,3.73,0,0,1,2.593-3.547l.726,3.629a.414.414,0,0,0,.286.315.422.422,0,0,0,.12.017.414.414,0,0,0,.293-.121l1.776-1.776,1.776,1.776a.414.414,0,0,0,.7-.211l.726-3.629a3.731,3.731,0,0,1,2.592,3.547Z"/><path class="a" d="M11.484,47.725a.414.414,0,0,0-.414-.414h-.656l1.9-1.9,1.9,1.9h-.656a.414.414,0,0,0-.414.414,4.966,4.966,0,0,0,2.21,4.129A4.144,4.144,0,0,1,11.484,47.725Z" transform="translate(-4.346 -24.863)"/></g></svg>