<svg xmlns="http://www.w3.org/2000/svg" width="24.279" height="24.565" viewBox="0 0 24.279 24.565"><defs><style>.a{fill:#fff;}</style></defs><g transform="translate(-2.972 0)"><circle class="a" cx="1.439" cy="1.439" r="1.439" transform="translate(13.672 10.843)"/><path class="a" d="M126.525,133.05A6.525,6.525,0,1,0,120,126.525,6.532,6.532,0,0,0,126.525,133.05Zm0-9.4a2.879,2.879,0,1,1-2.879,2.879A2.882,2.882,0,0,1,126.525,123.646Z" transform="translate(-111.413 -114.243)"/><path class="a" d="M25.955,12.282c0-.235-.008-.473-.023-.71l1.32-1.208-.076-.4a12.395,12.395,0,0,0-.944-2.906L26.06,6.7l-1.777-.2a10.923,10.923,0,0,0-.835-1.148L23.806,3.6l-.294-.275a12.395,12.395,0,0,0-2.472-1.8l-.352-.195-1.555.881a10.8,10.8,0,0,0-1.353-.439L17.039.144l-.4-.05a12.392,12.392,0,0,0-3.056,0l-.4.05-.74,1.627a10.811,10.811,0,0,0-1.353.439L9.537,1.329l-.352.195a12.394,12.394,0,0,0-2.472,1.8L6.418,3.6l.358,1.754A10.9,10.9,0,0,0,5.941,6.5l-1.777.2-.171.365a12.39,12.39,0,0,0-.944,2.907l-.076.4,1.32,1.208c-.015.237-.023.475-.023.71s.008.473.023.71L2.972,14.2l.076.4A12.392,12.392,0,0,0,3.993,17.5l.171.365,1.777.2a10.908,10.908,0,0,0,.835,1.148l-.358,1.754.294.275a12.4,12.4,0,0,0,2.472,1.8l.352.195,1.555-.881a10.805,10.805,0,0,0,1.353.439l.74,1.627.4.05a12.387,12.387,0,0,0,3.056,0l.4-.05.74-1.627a10.805,10.805,0,0,0,1.353-.439l1.555.881.352-.195a12.394,12.394,0,0,0,2.472-1.8l.294-.275-.358-1.754a10.916,10.916,0,0,0,.835-1.148l1.777-.2.171-.365a12.4,12.4,0,0,0,.944-2.906l.076-.4-1.32-1.208c.015-.237.023-.475.023-.71Zm-18.807,0a7.964,7.964,0,1,1,7.964,7.964A7.973,7.973,0,0,1,7.147,12.282Z"/></g></svg>