<svg xmlns="http://www.w3.org/2000/svg" width="40.184" height="40.185" viewBox="0 0 40.184 40.185"><defs><style>.a{fill:#ecbe44;}</style></defs><path class="a" d="M162.051,216.348a1.769,1.769,0,0,0-1.665,1.177h-3.358v-.687a.589.589,0,1,0-1.177,0v2.87a11.918,11.918,0,0,1-2.771,7.783,23.425,23.425,0,0,1-9.355,6.575,23.558,23.558,0,0,1-8.548-5.682.589.589,0,1,0-.853.812,24.035,24.035,0,0,0,2.611,2.364v4.472a1.766,1.766,0,1,0,1.177,0v-3.609A25.628,25.628,0,0,0,143.4,235.2a.908.908,0,0,0,.656,0,24.6,24.6,0,0,0,9.921-6.944,12.62,12.62,0,0,0,2.6-5h1.99a1.766,1.766,0,1,0,0-1.177h-1.734a14.022,14.022,0,0,0,.2-2.369V218.7h3.358a1.766,1.766,0,1,0,1.665-2.355Zm-24.527,21.937a.589.589,0,1,1,.589-.589A.589.589,0,0,1,137.525,238.285Zm22.7-16.207a.589.589,0,1,1-.589.589A.589.589,0,0,1,160.227,222.078Zm1.825-3.375a.589.589,0,1,1,.589-.589A.589.589,0,0,1,162.051,218.7Zm0,0" transform="translate(-123.633 -199.278)"/><path class="a" d="M7.966,20.431V9.722a23.538,23.538,0,0,0,6.672-2.83,10.539,10.539,0,0,1,10.908,0,27.329,27.329,0,0,0,3.008,1.576l.034.015a20.862,20.862,0,0,0,3.63,1.24v5.32a.589.589,0,0,0,1.177,0V9.506a.9.9,0,0,0-.69-.88,19.2,19.2,0,0,1-3.313-1.078V3.431a1.766,1.766,0,1,0-1.177,0v3.58q-1.023-.5-2.061-1.127a11.713,11.713,0,0,0-12.124,0A22.159,22.159,0,0,1,7.479,8.626a.9.9,0,0,0-.69.88v3.562H3.431a1.766,1.766,0,1,0,0,1.177H6.789V17.62H5.255a1.766,1.766,0,1,0,0,1.177H6.789v1.634a13.179,13.179,0,0,0,2.356,7.652.589.589,0,1,0,.962-.679A12.008,12.008,0,0,1,7.966,20.431ZM28.8,1.177a.589.589,0,1,1-.589.589A.589.589,0,0,1,28.8,1.177ZM1.766,14.245a.589.589,0,1,1,.589-.589A.589.589,0,0,1,1.766,14.245ZM3.591,18.8a.589.589,0,1,1,.589-.589A.589.589,0,0,1,3.591,18.8Zm0,0"/><path class="a" d="M120.973,87.083a.589.589,0,1,0-.522-1.055,24.327,24.327,0,0,1-3.324,1.359.9.9,0,0,0-.627.859v9.132a10.74,10.74,0,0,0,2.487,7.016,22.148,22.148,0,0,0,8.135,5.935.829.829,0,0,0,.654,0,22.143,22.143,0,0,0,8.134-5.934,10.742,10.742,0,0,0,2.488-7.016V88.246a.9.9,0,0,0-.627-.859,26.224,26.224,0,0,1-5.475-2.539,9.391,9.391,0,0,0-9.693,0l-.125.075a.589.589,0,0,0,.6,1.011l.13-.078a8.213,8.213,0,0,1,8.477,0,27.589,27.589,0,0,0,5.533,2.59v8.931a9.565,9.565,0,0,1-2.2,6.25,20.954,20.954,0,0,1-7.568,5.559,20.958,20.958,0,0,1-7.568-5.56,9.564,9.564,0,0,1-2.2-6.25V88.446A25.685,25.685,0,0,0,120.973,87.083Zm0,0" transform="translate(-107.356 -76.946)"/><path class="a" d="M203.013,175.5a2.946,2.946,0,0,0-2.943,2.943v.981h-.2A1.375,1.375,0,0,0,198.5,180.8v4.709a1.375,1.375,0,0,0,1.373,1.374h6.279a1.375,1.375,0,0,0,1.374-1.374V180.8a1.375,1.375,0,0,0-1.374-1.373h-.2v-.981A2.946,2.946,0,0,0,203.013,175.5Zm-1.766,2.943a1.766,1.766,0,1,1,3.532,0v.981h-3.532Zm5.1,2.355v4.709a.2.2,0,0,1-.2.2h-6.279a.2.2,0,0,1-.2-.2V180.8a.2.2,0,0,1,.2-.2h6.279A.2.2,0,0,1,206.349,180.8Zm0,0" transform="translate(-182.921 -161.726)"/><path class="a" d="M235.266,243a1.766,1.766,0,0,0-.589,3.431v.69a.589.589,0,0,0,1.177,0v-.69a1.766,1.766,0,0,0-.589-3.431Zm0,2.355a.589.589,0,1,1,.589-.589A.589.589,0,0,1,235.266,245.355Zm0,0" transform="translate(-215.174 -223.928)"/></svg>