<svg xmlns="http://www.w3.org/2000/svg" width="30.043" height="30.043" viewBox="0 0 30.043 30.043"><defs><style>.a{fill:#c2991a;}</style></defs><g transform="translate(0)"><path class="a" d="M149.28,137.473a2.856,2.856,0,0,0-1.637-1.637,4.772,4.772,0,0,0-1.6-.3c-.91-.042-1.182-.05-3.486-.05s-2.576.009-3.486.05a4.775,4.775,0,0,0-1.6.3,2.858,2.858,0,0,0-1.637,1.637,4.773,4.773,0,0,0-.3,1.6c-.041.909-.05,1.182-.05,3.486s.009,2.576.05,3.486a4.771,4.771,0,0,0,.3,1.6,2.856,2.856,0,0,0,1.637,1.637,4.766,4.766,0,0,0,1.6.3c.91.041,1.182.05,3.485.05s2.576-.009,3.486-.05a4.766,4.766,0,0,0,1.6-.3,2.856,2.856,0,0,0,1.637-1.637,4.776,4.776,0,0,0,.3-1.6c.041-.91.05-1.182.05-3.486s-.009-2.576-.05-3.486A4.766,4.766,0,0,0,149.28,137.473Zm-6.724,9.516a4.429,4.429,0,1,1,4.429-4.429A4.429,4.429,0,0,1,142.556,146.989Zm4.6-8a1.035,1.035,0,1,1,1.035-1.035A1.035,1.035,0,0,1,147.161,138.991Zm0,0" transform="translate(-127.535 -127.538)"/><path class="a" d="M212.75,209.875A2.875,2.875,0,1,1,209.875,207,2.875,2.875,0,0,1,212.75,209.875Zm0,0" transform="translate(-194.854 -194.854)"/><path class="a" d="M27.876,0H2.167A2.167,2.167,0,0,0,0,2.167v25.71a2.167,2.167,0,0,0,2.167,2.167h25.71a2.167,2.167,0,0,0,2.167-2.167V2.167A2.167,2.167,0,0,0,27.876,0ZM23.6,18.578a6.328,6.328,0,0,1-.4,2.094,4.41,4.41,0,0,1-2.523,2.523,6.333,6.333,0,0,1-2.094.4c-.92.042-1.214.052-3.556.052s-2.636-.01-3.556-.052a6.333,6.333,0,0,1-2.094-.4,4.41,4.41,0,0,1-2.523-2.523,6.327,6.327,0,0,1-.4-2.094c-.042-.92-.052-1.214-.052-3.556s.01-2.636.052-3.556a6.329,6.329,0,0,1,.4-2.094A4.413,4.413,0,0,1,9.372,6.849a6.334,6.334,0,0,1,2.094-.4c.92-.042,1.214-.052,3.556-.052s2.636.01,3.556.052a6.336,6.336,0,0,1,2.094.4,4.412,4.412,0,0,1,2.523,2.523,6.328,6.328,0,0,1,.4,2.094c.042.92.052,1.214.052,3.556S23.637,17.658,23.6,18.578Zm0,0"/></g></svg>