<svg xmlns="http://www.w3.org/2000/svg" width="37.457" height="38.604" viewBox="0 0 37.457 38.604"><defs><style>.a{fill:#ecbe44;}</style></defs><g transform="translate(-7.604)"><g transform="translate(14.345 6.429)"><g transform="translate(0)"><rect class="a" width="8.282" height="1.147"/></g></g><g transform="translate(11.435 6.429)"><rect class="a" width="1.259" height="1.147"/></g><g transform="translate(7.604)"><g transform="translate(0)"><path class="a" d="M45.061,5.665V2.259H32.109V0H20.556V2.259H7.6V5.665H8.751v24H7.6v3.406H25.186V34.8a1.946,1.946,0,1,0,1.147,0V33.075H45.061V29.669H43.915v-24ZM21.7,1.147h9.26V2.259H21.7Zm4.856,35.511a.8.8,0,1,1-.8-.8A.8.8,0,0,1,26.559,36.658Zm17.356-4.73H8.751V30.816H43.915ZM9.9,29.669v-24H42.768v24ZM8.751,4.518V3.406H43.915V4.518H8.751Z" transform="translate(-7.604)"/></g></g><g transform="translate(31.65 27.758)"><rect class="a" width="7.303" height="1.147"/></g><g transform="translate(40.326 27.758)"><rect class="a" width="1.215" height="1.147"/></g><g transform="translate(11.259 7.385)"><path class="a" d="M85.309,100.631a1.946,1.946,0,0,0-3.684-.514l-3.844-.537a1.946,1.946,0,1,0-3.624,1.252l-4.714,4.893a1.942,1.942,0,0,0-2.388.511l-3.961-1.593c0-.053.007-.107.007-.162a1.946,1.946,0,1,0-3.352,1.344l-3.663,6.568,1,.559,3.663-6.567a1.943,1.943,0,0,0,1.916-.678l3.961,1.593c0,.053-.007.107-.007.162a1.946,1.946,0,1,0,3.649-.941l4.714-4.893a1.944,1.944,0,0,0,2.639-.912l3.844.537a1.946,1.946,0,0,0,3.684.514l.465.065.159-1.136Zm-24.154,4.65a.8.8,0,1,1,.8-.8A.8.8,0,0,1,61.155,105.281Zm7.411,2.981a.8.8,0,1,1,.8-.8A.8.8,0,0,1,68.566,108.261Zm7.294-7.571a.8.8,0,1,1,.8-.8A.8.8,0,0,1,75.861,100.69Zm7.528,1.051a.8.8,0,1,1,.8-.8A.8.8,0,0,1,83.388,101.741Z" transform="translate(-56.086 -97.944)"/></g><g transform="translate(11.522 12.213)"><path class="a" d="M89.387,162.682l-.9-.709-1.181,1.5A1.945,1.945,0,0,0,85,166.4l-5.111,6.494a1.941,1.941,0,0,0-2.087.452L73.7,171.215a1.946,1.946,0,1,0-3.806.116l-4.219,2.52a1.944,1.944,0,0,0-3.231,1.7l-2.878,1.316.477,1.043,2.878-1.316a1.945,1.945,0,0,0,3.343-1.756l4.219-2.521a1.942,1.942,0,0,0,2.689-.082l4.109,2.127a1.946,1.946,0,1,0,3.515-.76l5.111-6.494a1.945,1.945,0,0,0,2.3-2.922ZM64.372,176.1a.8.8,0,1,1,.8-.8A.8.8,0,0,1,64.372,176.1Zm7.411-4.428a.8.8,0,1,1,.8-.8A.8.8,0,0,1,71.783,171.669Zm7.411,3.836a.8.8,0,1,1,.8-.8A.8.8,0,0,1,79.194,175.505ZM86.6,166.09a.8.8,0,1,1,.8-.8A.8.8,0,0,1,86.6,166.09Z" transform="translate(-59.565 -161.973)"/></g></g></svg>