<svg xmlns="http://www.w3.org/2000/svg" width="24" height="24" viewBox="0 0 24 24"><defs><style>.a{fill:#fff;}</style></defs><path class="a" d="M2.75,0A2.75,2.75,0,0,0,0,2.75V11.5H11.5V0Zm4.5,6.75h-1v1a.75.75,0,0,1-1.5,0v-1h-1a.75.75,0,0,1,0-1.5h1v-1a.75.75,0,0,1,1.5,0v1h1a.75.75,0,0,1,0,1.5Z"/><path class="a" d="M0,12.5v8.75A2.75,2.75,0,0,0,2.75,24H11.5V12.5Zm7.53,6.47a.75.75,0,1,1-1.06,1.06l-.72-.72-.72.72a.75.75,0,0,1-1.06-1.061l.72-.72-.72-.72a.75.75,0,0,1,1.061-1.061l.72.72.72-.72a.75.75,0,0,1,1.061,1.061l-.72.72Z"/><path class="a" d="M21.25,0H12.5V11.5H24V2.75A2.75,2.75,0,0,0,21.25,0Zm-.5,6.5h-4.5a.75.75,0,0,1,0-1.5h4.5a.75.75,0,0,1,0,1.5Z"/><path class="a" d="M12.5,12.5V24h8.75A2.75,2.75,0,0,0,24,21.25V12.5Zm8,8H16A.75.75,0,0,1,16,19h4.5a.75.75,0,0,1,0,1.5Zm0-3H16A.75.75,0,0,1,16,16h4.5a.75.75,0,0,1,0,1.5Z"/></svg>