<svg xmlns="http://www.w3.org/2000/svg" width="50.007" height="46.478" viewBox="0 0 50.007 46.478"><defs><style>.a{fill:#fff;}</style></defs><g transform="translate(0 0)"><path class="a" d="M214.96,300.963a.977.977,0,1,0-1.382,0A.978.978,0,0,0,214.96,300.963Zm0,0" transform="translate(-192.46 -270.063)"/><path class="a" d="M224.985,62.957v1.953a5.86,5.86,0,0,0,11.721,0V62.957a.977.977,0,1,0,0-1.953h-1.953a.977.977,0,0,0,0,1.953v1.953a3.907,3.907,0,0,1-7.814,0V62.957a.977.977,0,1,0,0-1.953h-1.953a.977.977,0,1,0,0,1.953Zm0,0" transform="translate(-202.129 -55.046)"/><path class="a" d="M11.351,46.192a.977.977,0,0,0,1.381,0l3-3a4.522,4.522,0,0,0,1.312-3.665l1.076-1.039a4.532,4.532,0,0,1,3.159-1.276h12.86a8.741,8.741,0,0,0,6.131-2.491.915.915,0,0,0,.069-.075l8.75-10.507a3.907,3.907,0,0,0-5.946-5.07l-.945.977V.976A.977.977,0,0,0,41.218,0h-25.1a.977.977,0,0,0-.977.977V22.859a11.749,11.749,0,0,0-8.4,6.574A4.51,4.51,0,0,0,3.3,30.759l-3.014,3a.977.977,0,0,0,0,1.383ZM40.242,1.953V22.067L37.415,24.99a3.924,3.924,0,0,0-3.034-1.451H23.057a.539.539,0,0,1-.2-.042,12.622,12.622,0,0,0-4.788-.935c-.327,0-.653.012-.977.033V1.953ZM16.256,24.644a11.1,11.1,0,0,1,5.868.663,2.485,2.485,0,0,0,.932.185H34.381a1.953,1.953,0,0,1,0,3.907h-8.5a.977.977,0,0,0,0,1.953h8.5a3.9,3.9,0,0,0,3.872-4.42c.2-.209,6.107-6.315,6.312-6.526.015-.016.03-.032.043-.048a1.954,1.954,0,1,1,2.981,2.526L38.869,33.357a6.8,6.8,0,0,1-4.732,1.9H21.277a6.474,6.474,0,0,0-4.515,1.823l-.431.416a4.547,4.547,0,0,0-.6-.739l-6-6a4.561,4.561,0,0,0-1.077-.8,9.779,9.779,0,0,1,7.6-5.32Zm-11.574,7.5a2.59,2.59,0,0,1,3.669,0l6,6a2.591,2.591,0,0,1,0,3.669L12.04,44.12,2.36,34.452Zm0,0"/></g></svg>