<svg xmlns="http://www.w3.org/2000/svg" width="51.356" height="47.076" viewBox="0 0 51.356 47.076"><defs><style>.a{fill:#fff;}</style></defs><g transform="translate(0 -1)"><path class="a" d="M8.35,11.21H4.6A1.6,1.6,0,1,1,4.6,8H8.35a1.6,1.6,0,1,1,0,3.21Z" transform="translate(3.419 7.979)"/><path class="a" d="M8.35,21.71H4.6a1.6,1.6,0,1,1,0-3.21H8.35a1.6,1.6,0,1,1,0,3.21Z" transform="translate(3.419 19.947)"/><path class="a" d="M19.514,13.71H5.6a1.6,1.6,0,0,1,0-3.21H19.514a1.6,1.6,0,1,1,0,3.21Z" transform="translate(4.559 10.828)"/><path class="a" d="M37.632,16.21H6.6A1.6,1.6,0,1,1,6.6,13H37.632a1.6,1.6,0,0,1,0,3.21Z" transform="translate(5.699 13.678)"/><path class="a" d="M19.514,19.21H5.6A1.6,1.6,0,1,1,5.6,16H19.514a1.6,1.6,0,1,1,0,3.21Z" transform="translate(4.559 17.097)"/><path class="a" d="M45.471,48.076H5.885A5.889,5.889,0,0,1,0,42.192V6.885A5.889,5.889,0,0,1,5.885,1H45.471a5.889,5.889,0,0,1,5.884,5.885V42.192A5.889,5.889,0,0,1,45.471,48.076ZM5.885,4.21A2.678,2.678,0,0,0,3.21,6.885V42.192a2.678,2.678,0,0,0,2.675,2.675H45.471a2.678,2.678,0,0,0,2.675-2.675V6.885A2.678,2.678,0,0,0,45.471,4.21Z" transform="translate(0 0)"/><path class="a" d="M49.751,7.71H1.6a1.6,1.6,0,0,1,0-3.21H49.751a1.6,1.6,0,0,1,0,3.21Z" transform="translate(0 3.989)"/></g></svg>