<svg xmlns="http://www.w3.org/2000/svg" width="48.002" height="48.002" viewBox="0 0 48.002 48.002"><defs><style>.a{fill:#fff;}</style></defs><path class="a" d="M46.632,22.165A1.372,1.372,0,0,0,48,20.795V18.812a1.372,1.372,0,0,0-1.37-1.371H44.654V1.482A1.483,1.483,0,0,0,43.172,0h-1.76A1.483,1.483,0,0,0,39.93,1.482v15.96h-2.5V11.517a1.989,1.989,0,0,0-1.987-1.987H24.682v-1.5A1.989,1.989,0,0,0,22.7,6.047H12.513a1.989,1.989,0,0,0-1.987,1.987v2.7a.7.7,0,1,0,1.406,0v-2.7a.581.581,0,0,1,.58-.581h2.36v3.791a.7.7,0,0,0,1.046.614l1.685-.941,1.685.941a.7.7,0,0,0,1.046-.614V7.453H22.7a.581.581,0,0,1,.58.581v9.408H11.933V13.548a.7.7,0,0,0-1.406,0v3.894H8.072V1.482A1.483,1.483,0,0,0,6.59,0H4.83A1.483,1.483,0,0,0,3.348,1.482v15.96H1.371A1.372,1.372,0,0,0,0,18.812v1.982a1.372,1.372,0,0,0,1.371,1.37H3.348v13.2H1.371A1.372,1.372,0,0,0,0,36.733v1.982a1.372,1.372,0,0,0,1.371,1.371H3.348v6.435A1.483,1.483,0,0,0,4.83,48H6.59a1.483,1.483,0,0,0,1.482-1.482V40.086H26.738a.7.7,0,1,0,0-1.406H8.072V36.768H39.93v1.911H29.55a.7.7,0,1,0,0,1.406H39.93V46.52A1.483,1.483,0,0,0,41.412,48h1.76a1.483,1.483,0,0,0,1.482-1.482V40.086h1.978A1.372,1.372,0,0,0,48,38.715V36.733a1.372,1.372,0,0,0-1.37-1.371H44.654v-13.2Zm-27.7-12.119L17.947,9.5a.7.7,0,0,0-.686,0l-.982.548V7.453h2.65Zm27.667,8.8v1.911H44.654V18.848ZM29.028,10.937h2.65V13.53l-.982-.548a.7.7,0,0,0-.686,0l-.982.548Zm-4.347,0h2.94v3.791a.7.7,0,0,0,1.046.614l1.685-.941,1.685.941a.7.7,0,0,0,1.046-.614V10.937h2.36a.581.581,0,0,1,.58.58v5.924H24.682ZM39.93,18.848v1.911H8.072V18.848ZM1.406,20.759V18.848H3.348v1.911Zm0,17.92V36.768H3.348v1.911ZM6.666,46.52a.075.075,0,0,1-.075.075H4.83a.075.075,0,0,1-.075-.075V1.482a.075.075,0,0,1,.075-.075H6.59a.075.075,0,0,1,.075.075Zm9.614-21.178h2.65v2.593l-.982-.548a.7.7,0,0,0-.686,0l-.982.548V25.343Zm-1.059,4.4a.7.7,0,0,0,.7.008l1.685-.941,1.685.941a.7.7,0,0,0,1.046-.614V25.342H22.7a.581.581,0,0,1,.58.581v2.038a.651.651,0,0,1,0,.162v7.239H11.933V25.923a.581.581,0,0,1,.58-.581h2.36v3.791A.7.7,0,0,0,15.22,29.74Zm13.808-.914h2.65v2.593L30.7,30.87a.7.7,0,0,0-.686,0l-.982.548Zm-1.059,4.4a.7.7,0,0,0,.7.008l1.685-.941,1.685.941a.7.7,0,0,0,1.046-.614V28.826h2.36a.581.581,0,0,1,.58.58v5.956H24.682V28.826h2.94v3.791a.7.7,0,0,0,.347.606Zm9.462,2.139V29.406a1.989,1.989,0,0,0-1.987-1.987H24.682v-1.5A1.989,1.989,0,0,0,22.7,23.936H12.513a1.989,1.989,0,0,0-1.987,1.987v9.439H8.072v-13.2H39.93v13.2ZM43.247,46.52a.075.075,0,0,1-.075.075h-1.76a.075.075,0,0,1-.075-.075V1.482a.075.075,0,0,1,.075-.075h1.76a.075.075,0,0,1,.075.075ZM46.6,36.768v1.911H44.654V36.768Z"/></svg>